<svg width="14" height="15" viewBox="0 0 14 15" fill="none" xmlns="http://www.w3.org/2000/svg">
<path fill-rule="evenodd" clip-rule="evenodd" d="M8.67286 10.1747C8.21288 10.3592 7.79472 10.5068 7.29293 10.5805L6.91658 12.1668H5.20213L5.57847 10.6174H3.11133L4.53307 4.23534H7.04203L7.33474 2.8335H9.0492L8.71467 4.3829C8.92375 4.41979 9.13283 4.49358 9.3001 4.56736C9.80189 4.7887 10.1782 5.12072 10.4709 5.52651C10.7637 5.93231 10.8891 6.375 10.8891 6.92836C10.8891 7.62928 10.68 8.29331 10.3037 8.84667C9.88552 9.43692 9.34191 9.87961 8.67286 10.1747ZM5.32758 8.99423L4.24036 9.28936H5.28576H6.7075C7.12566 9.28936 7.50201 9.17869 7.83654 8.99423C8.17107 8.80978 8.42196 8.55155 8.63104 8.21953C8.84012 7.88751 8.92375 7.51861 8.92375 7.11281C8.92375 6.67012 8.75649 6.30122 8.46378 6.00609C8.17107 5.74786 7.75291 5.60029 7.25111 5.60029H6.1639H5.07668L6.03845 5.89542L5.32758 8.99423Z" fill="#3038E5"/>
</svg>
