<svg width="25" height="12" viewBox="0 0 25 12" fill="none" xmlns="http://www.w3.org/2000/svg">
<path opacity="0.35" d="M2.66667 0.833008H19.3333C20.53 0.833008 21.5 1.80306 21.5 2.99967V8.99968C21.5 10.1963 20.53 11.1663 19.3333 11.1663H2.66667C1.47005 11.1663 0.5 10.1963 0.5 8.99967V2.99967C0.5 1.80306 1.47005 0.833008 2.66667 0.833008Z" stroke="white"/>
<path opacity="0.4" d="M23 3.99951V7.99951C23.8047 7.66074 24.328 6.87265 24.328 5.99951C24.328 5.12638 23.8047 4.33829 23 3.99951" fill="white"/>
<path d="M2 3.66634C2 2.92996 2.59695 2.33301 3.33333 2.33301H18.6667C19.403 2.33301 20 2.92996 20 3.66634V8.33301C20 9.06939 19.403 9.66634 18.6667 9.66634H3.33333C2.59695 9.66634 2 9.06939 2 8.33301V3.66634Z" fill="white"/>
</svg>
