<svg width="26" height="26" viewBox="0 0 26 26" fill="none" xmlns="http://www.w3.org/2000/svg">
<g opacity="0.45">
<path d="M13.1008 24.75C6.72188 24.75 1.55078 19.5789 1.55078 13.2C1.55078 9.59205 3.27841 6.34118 5.90283 4.21004" stroke="#969AF1" stroke-width="2" stroke-linecap="round" stroke-linejoin="round"/>
<path d="M6.11489 8.24986V3.68666H1.55169" stroke="#969AF1" stroke-width="2" stroke-linecap="round" stroke-linejoin="round"/>
</g>
<path d="M13.1004 1.6499C19.4793 1.6499 24.6504 6.821 24.6504 13.1999C24.6504 16.8078 22.9228 20.0587 20.2983 22.1899" stroke="white" stroke-width="2" stroke-linecap="round" stroke-linejoin="round"/>
<path d="M20.0863 18.15V22.7132H24.6495" stroke="white" stroke-width="2" stroke-linecap="round" stroke-linejoin="round"/>
<path fill-rule="evenodd" clip-rule="evenodd" d="M8 15.3357L8.46339 14.1119H8.95253C8.93966 13.895 8.93323 13.6851 8.93323 13.4823C8.93323 13.2088 8.94395 12.9541 8.96541 12.7183H8L8.46339 11.4945H9.19067C9.8686 9.16483 11.3961 8 13.7731 8C14.554 8 15.2963 8.10847 16 8.3254V9.86752C15.3392 9.55155 14.6377 9.39357 13.8954 9.39357C12.4709 9.39357 11.5548 10.0939 11.1472 11.4945H15.3886L14.9252 12.7183H10.8705C10.849 12.8692 10.8383 13.072 10.8383 13.3267C10.8383 13.6191 10.8469 13.8808 10.864 14.1119H14.3974L13.9405 15.3357H11.1086C11.4132 16.1846 11.7844 16.7752 12.222 17.1077C12.6597 17.4402 13.284 17.6064 14.0949 17.6064C14.6742 17.6064 15.3092 17.4555 16 17.1537V18.6039C15.3435 18.868 14.5626 19 13.6573 19C11.2759 19 9.76991 17.7786 9.13918 15.3357H8Z" fill="white"/>
</svg>
