<svg width="26" height="26" viewBox="0 0 26 26" fill="none" xmlns="http://www.w3.org/2000/svg">
<path d="M5.47091 3.4668H4.2C2.98487 3.4668 2 4.45166 2 5.6668C2 6.88193 2.98487 7.8668 4.2 7.8668" stroke="white" stroke-width="2" stroke-linecap="round" stroke-linejoin="round"/>
<path d="M6.40039 7.86667V2H18.8671V7.86667" stroke="white" stroke-width="2" stroke-linecap="round" stroke-linejoin="round"/>
<path d="M21.8 12.7356V7.8665H17.4H7.86667H4.2C2.98487 7.8665 2 6.88164 2 5.6665V21.0665C2 22.6864 3.3134 23.9998 4.93333 23.9998H21.8V19.1121" stroke="white" stroke-width="2" stroke-linecap="round" stroke-linejoin="round"/>
<path fill-rule="evenodd" clip-rule="evenodd" d="M24.0003 18.1334H18.867C17.6519 18.1334 16.667 17.1485 16.667 15.9334V15.9334C16.667 14.7183 17.6519 13.7334 18.867 13.7334H24.0003V18.1334Z" stroke="white" stroke-width="2" stroke-linecap="round" stroke-linejoin="round"/>
</svg>
