<svg width="71" height="22" viewBox="0 0 71 22" fill="none" xmlns="http://www.w3.org/2000/svg">
<path d="M8.658 8.525L7.878 9.084C7.215 8.174 6.604 7.667 5.486 7.667C4.303 7.667 3.406 8.577 3.003 9.89H6.344V10.696H2.821C2.795 10.943 2.782 11.19 2.782 11.437V11.45C2.782 11.671 2.769 11.892 2.808 12.1H6.344V12.919H2.964C3.354 14.323 4.316 15.233 5.629 15.233C6.656 15.233 7.319 14.661 7.943 13.738L8.684 14.258C7.956 15.337 7.072 16.156 5.59 16.156C3.757 16.156 2.366 14.856 1.911 12.919H0.728V12.1H1.781C1.742 11.892 1.755 11.684 1.755 11.463V11.45C1.755 11.203 1.768 10.956 1.794 10.696H0.728V9.89H1.95C2.444 8.07 3.757 6.744 5.525 6.744C7.059 6.744 7.969 7.498 8.658 8.525Z" fill="white"/>
<path d="M17.641 16.156C15.288 16.156 13.806 14.024 13.806 11.476V11.45C13.806 8.902 15.327 6.744 17.667 6.744C20.007 6.744 21.489 8.876 21.489 11.424V11.45C21.489 13.998 19.981 16.156 17.641 16.156ZM17.667 15.22C19.383 15.22 20.423 13.465 20.423 11.476V11.45C20.423 9.474 19.344 7.68 17.641 7.68C15.938 7.68 14.872 9.422 14.872 11.424V11.45C14.872 13.426 15.951 15.22 17.667 15.22ZM23.1785 16V14.635H24.3745V16H23.1785ZM29.4548 16.156C28.1548 16.156 27.0368 15.545 26.2048 14.713L26.8808 13.972C27.6738 14.752 28.5318 15.22 29.4678 15.22C30.7678 15.22 31.6648 14.362 31.6648 13.205V13.179C31.6648 12.035 30.7158 11.268 29.4028 11.268C28.6228 11.268 28.0248 11.489 27.4918 11.788L26.8028 11.333L27.0628 6.9H32.3018V7.849H27.9598L27.7648 10.761C28.2978 10.514 28.7918 10.358 29.5588 10.358C31.3268 10.358 32.7048 11.411 32.7048 13.14V13.166C32.7048 14.947 31.3658 16.156 29.4548 16.156ZM35.0146 16L39.1226 7.836H34.1176V6.9H40.2926V7.667L36.1586 16H35.0146Z" fill="white"/>
<path fill-rule="evenodd" clip-rule="evenodd" d="M49.436 2.18404C49 3.03969 49 4.15979 49 6.4V15.6C49 17.8402 49 18.9603 49.436 19.816C49.8195 20.5686 50.4314 21.1805 51.184 21.564C52.0397 22 53.1598 22 55.4 22H64.6C66.8402 22 67.9603 22 68.816 21.564C69.5686 21.1805 70.1805 20.5686 70.564 19.816C71 18.9603 71 17.8402 71 15.6V6.4C71 4.15979 71 3.03969 70.564 2.18404C70.1805 1.43139 69.5686 0.819467 68.816 0.435974C67.9603 0 66.8402 0 64.6 0H55.4C53.1598 0 52.0397 0 51.184 0.435974C50.4314 0.819467 49.8195 1.43139 49.436 2.18404ZM60.46 15.8406C61.2485 15.7246 61.9056 15.4928 62.6284 15.2029C63.6798 14.7391 64.534 14.0435 65.1912 13.1159C65.7826 12.2464 66.1111 11.2029 66.1111 10.1014C66.1111 9.23188 65.914 8.53623 65.454 7.89855C64.994 7.26087 64.4026 6.73913 63.6141 6.3913C63.3513 6.27536 63.0227 6.15942 62.6941 6.10145L63.2198 3.66667H60.5257L60.0657 5.86957H56.1231L53.8889 15.8986H57.7658L57.1744 18.3333H59.8686L60.46 15.8406ZM55.6631 13.8116L57.3716 13.3478L58.4887 8.47826L56.9773 8.01449H58.6858H60.3943C61.1828 8.01449 61.8399 8.24638 62.2999 8.65217C62.7599 9.11594 63.0227 9.69565 63.0227 10.3913C63.0227 11.029 62.8913 11.6087 62.5627 12.1304C62.2342 12.6522 61.8399 13.058 61.3142 13.3478C60.7885 13.6377 60.1971 13.8116 59.54 13.8116H57.3059H55.6631Z" fill="white"/>
</svg>
