<svg width="394" height="327" viewBox="0 0 394 327" fill="none" xmlns="http://www.w3.org/2000/svg">
<g clip-path="url(#clip0_3219_77012)">
<g clip-path="url(#clip1_3219_77012)">
<path fill-rule="evenodd" clip-rule="evenodd" d="M53.3139 -7.03098C53.2527 -12.0881 59.038 -17.6935 65.3973 -20.2592C71.7566 -22.825 76.6288 -22.4886 79.8423 -20.6737C83.0557 -18.8588 103.668 8.97683 103.523 16.9284C103.378 24.8801 104.612 57.137 96.1848 53.4696C92.2266 51.7469 63.5162 10.9879 60.3885 6.15647C56.8575 0.702141 53.3683 -2.54467 53.3139 -7.03098Z" fill="white" stroke="#3038E5" stroke-width="2.24483"/>
<mask id="mask0_3219_77012" style="mask-type:luminance" maskUnits="userSpaceOnUse" x="52" y="-24" width="53" height="79">
<path fill-rule="evenodd" clip-rule="evenodd" d="M53.3139 -7.03098C53.2527 -12.0881 59.038 -17.6935 65.3973 -20.2592C71.7566 -22.825 76.6288 -22.4886 79.8423 -20.6737C83.0557 -18.8588 103.668 8.97683 103.523 16.9284C103.378 24.8801 104.612 57.137 96.1848 53.4696C92.2266 51.7469 63.5162 10.9879 60.3885 6.15647C56.8575 0.702141 53.3683 -2.54467 53.3139 -7.03098Z" fill="white" stroke="white" stroke-width="2.24483"/>
</mask>
<g mask="url(#mask0_3219_77012)">
<path opacity="0.183105" fill-rule="evenodd" clip-rule="evenodd" d="M82.6698 -22.5117H88.9554V176.829L78.1426 176.208L82.6698 -22.5117Z" fill="#3038E5"/>
</g>
<path d="M72.2774 64.5934C69.7744 63.0407 67.7966 61.2259 66.2499 59.4315C67.9879 60.5818 70.1306 61.7219 72.7659 62.7493C78.5429 65.0016 83.7505 64.6945 88.2318 62.0455C92.6591 59.4285 96.2255 54.6151 98.983 48.1555C99.2939 47.427 99.5645 47.0701 99.7387 46.9195C99.779 46.8847 99.8074 46.8668 99.8236 46.8581C99.8892 46.8814 100.084 46.9865 100.386 47.3536C100.691 47.7248 101.027 48.2674 101.381 48.984C102.808 51.8751 104.197 56.9049 105.2 62.191C106.201 67.4641 106.789 72.8363 106.677 76.3719C106.649 77.2512 106.579 77.9894 106.469 78.5694C106.378 79.0515 106.272 79.3618 106.181 79.543C106.09 79.4798 105.957 79.3725 105.782 79.1917C98.071 71.2336 86.6921 67.4755 79.8413 65.3446C77.9627 64.7603 76.2433 64.8061 74.9117 64.8455L74.8694 64.8468C74.2006 64.8666 73.6747 64.8821 73.2164 64.8427C72.7584 64.8034 72.4737 64.7152 72.2774 64.5934Z" fill="white" fill-opacity="0.886473" stroke="#3038E5" stroke-width="2.24483"/>
<mask id="mask1_3219_77012" style="mask-type:luminance" maskUnits="userSpaceOnUse" x="60" y="45" width="48" height="36">
<path d="M72.2774 64.5934C69.7744 63.0407 67.7966 61.2259 66.2499 59.4315C67.9879 60.5818 70.1306 61.7219 72.7659 62.7493C78.5429 65.0016 83.7505 64.6945 88.2318 62.0455C92.6591 59.4285 96.2255 54.6151 98.983 48.1555C99.2939 47.427 99.5645 47.0701 99.7387 46.9195C99.779 46.8847 99.8074 46.8668 99.8236 46.8581C99.8892 46.8814 100.084 46.9865 100.386 47.3536C100.691 47.7248 101.027 48.2674 101.381 48.984C102.808 51.8751 104.197 56.9049 105.2 62.191C106.201 67.4641 106.789 72.8363 106.677 76.3719C106.649 77.2512 106.579 77.9894 106.469 78.5694C106.378 79.0515 106.272 79.3618 106.181 79.543C106.09 79.4798 105.957 79.3725 105.782 79.1917C98.071 71.2336 86.6921 67.4755 79.8413 65.3446C77.9627 64.7603 76.2433 64.8061 74.9117 64.8455L74.8694 64.8468C74.2006 64.8666 73.6747 64.8821 73.2164 64.8427C72.7584 64.8034 72.4737 64.7152 72.2774 64.5934Z" fill="white" stroke="white" stroke-width="2.24483"/>
</mask>
<g mask="url(#mask1_3219_77012)">
<rect opacity="0.183105" x="82.6719" y="-22.5112" width="6.28553" height="199.341" fill="#3038E5"/>
</g>
<path d="M71.0552 140.499C68.5601 138.141 65.7499 135.456 63.1724 132.983C66.1456 134.673 69.623 136.449 73.3636 137.969C73.7463 138.125 74.1333 138.284 74.5232 138.444C76.694 139.335 78.9533 140.263 81.0509 140.836C83.4956 141.503 86.0302 141.78 88.1009 140.69C92.2425 138.509 96.7927 133.811 99.8603 125.336C99.8691 125.335 99.8782 125.334 99.8878 125.333C100.223 125.297 100.768 125.321 101.55 125.429C103.096 125.642 105.265 126.137 107.886 126.787C108.957 127.052 110.099 127.342 111.295 127.645C115.904 128.815 121.324 130.191 126.636 131.164C133.285 132.381 139.992 133.015 144.848 131.705C147.306 131.043 149.404 129.852 150.735 127.879C152.07 125.899 152.515 123.308 152.022 120.09C151.188 114.655 151.456 110.778 152.443 108.094C153.41 105.465 155.08 103.932 157.251 103.143C159.48 102.334 162.32 102.282 165.599 102.838C168.866 103.392 172.471 104.532 176.17 106.005C183.568 108.951 191.198 113.17 197.02 116.468C197.605 116.799 198.173 117.122 198.722 117.434C200.883 118.662 202.736 119.716 204.124 120.437C204.982 120.883 205.729 121.238 206.285 121.422C206.532 121.503 206.897 121.606 207.262 121.574C207.459 121.557 207.785 121.489 208.067 121.223C208.377 120.932 208.467 120.565 208.467 120.284V120.196V120.108V120.02V119.933V119.845V119.757V119.669V119.582V119.494V119.407V119.319V119.231V119.144V119.056V118.969V118.881V118.794V118.706V118.619V118.531V118.444V118.357V118.269V118.182V118.095V118.007V117.92V117.833V117.746V117.658V117.571V117.484V117.397V117.31V117.222V117.135V117.048V116.961V116.874V116.787V116.7V116.613V116.526V116.439V116.352V116.265V116.178V116.091V116.005V115.918V115.831V115.744V115.657V115.57V115.484V115.397V114.704V114.012V113.925V113.839V113.752V113.666V113.58V113.493V113.407V113.321V113.234V113.148V113.062V112.976V112.89V112.803V112.717V112.631V112.545V112.459V112.373V112.287V112.201V112.115V112.029V111.943V111.857V111.771V111.685V111.599V111.513V111.427V111.341V111.255V111.169V111.083V110.998V110.912V110.826V110.74V110.655V110.569V110.483V110.398V110.312V110.226V110.141V110.055V109.969V109.884V109.798V109.713V109.627V109.542V109.456V109.371V109.285V109.2V109.115V109.029V108.944V108.858V108.773V108.688V108.602V108.517V108.432V108.347V108.261V108.176V108.091V108.006V107.921V107.835V107.75V107.665V107.58V107.495V107.41V107.325V107.24V107.155V107.07V106.985V106.9V106.815V106.73V106.645V106.56V106.475V106.391V106.306V106.221V106.136V106.051V105.967V105.882V105.797V105.712V105.628V105.543V105.458V105.374V105.289V105.204V105.12V105.035V104.951V104.866V104.782V104.697V104.613V104.528V104.444V104.359V104.275V104.19V104.106V104.022V103.937V103.853V103.769V103.684V103.6V103.516V103.431V103.347V103.263V103.179V103.095V103.01V102.926V102.842V102.758V102.674V102.59V102.506V102.422V102.338V102.254V102.17V102.086V102.002V101.918V101.834V101.75V101.666V101.582V101.498V101.414V101.33V101.247V101.163V101.079V100.995V100.911V100.828V100.744V100.66V100.577V100.493V100.409V100.326V100.242V100.158V100.075V99.9911V99.9075V99.824V99.7404V99.6569V99.5734V99.4899V99.4064V99.323V99.2395V99.1561V99.0727V98.9893V98.9059V98.8226V98.7392V98.6559V98.5726V98.4893V98.406V98.3228V98.2395V98.1563V98.0731V97.9899V97.9067V97.8235V97.7403V97.6572V97.5741V97.491V97.4079V97.3248V97.2418V97.1587V97.0757V96.9927V96.9097V96.8267V96.7437V96.6608V96.5778V96.4949V96.412V96.3291V96.2463V96.1634V96.0806V95.9977V95.9149V95.8321V95.7494V95.6666V95.5838V95.5011V95.4184V95.3357V95.253V95.1703V95.0877V95.005V94.9224V94.8398V94.7572V94.6746V94.5921V94.5095V94.427V94.3445V94.262V94.1795V94.097V94.0145V93.9321V93.8497V93.7673V93.6849V93.6025V93.5201V93.4378V93.3554V93.2731V93.1908V93.1085V93.0262V92.944V92.8617V92.7795V92.6973V92.6151V92.5329V92.4507V92.3685V92.2864V92.2043V92.1222V92.0401V91.958V91.8759V91.7938V91.7118V91.6298V91.5478V91.4658V91.3838V91.3018V91.2199V91.1379V91.056V90.9741V90.8922V90.8103V90.7285V90.6466V90.5648V90.483V90.4012V90.3194V90.2376V90.1558V90.0741V89.9924V89.9106V89.8289V89.7473V89.6656V89.5839V89.5023V89.4206V89.339V89.2574V89.1758V89.0943V89.0127V88.9311V88.8496V88.7681V88.6866V88.6051V88.5236V88.4422V88.3607V88.2793V88.1979V88.1165V88.0351V87.9537V87.8723V87.791V87.7097V87.6283V87.547V87.4657V87.3845V87.3032V87.222V87.1407V87.0595V86.9783V86.8971V86.8159V86.7348V86.6536V86.5725V86.4913V86.4102V86.3291V86.248V86.167V86.0859V86.0049V85.9239V85.8428V85.7618V85.6809V85.5999V85.5189V85.438V85.357V85.2761V85.1952V85.1143V85.0335V84.9526V84.8717V84.7909V84.7101V84.6293V84.5485V84.4677V84.3869V84.3062V84.2254V84.1447V84.064V83.9833V83.9026V83.8219V83.7413V83.6606V83.58V83.4994V83.4187V83.3382V83.2576V83.177V83.0964V83.0159V82.9354V82.8549V82.7744V82.6939V82.6134V82.5329V82.4525V82.372V82.2916V82.2112V82.1308V82.0504V81.9701V81.8897V81.8094V81.729V81.6487V81.5684V81.4881V81.4078V81.3276V81.2473V81.1671V81.0868V81.0066V80.9264V80.8462V80.7661V80.6859V80.6057V80.5256V80.4455V80.3654V80.2853V80.2052V80.1251V77.5694C208.467 60.6488 223.242 52.4044 232.617 55.6274C233.18 55.8207 233.617 56.2046 233.975 56.9389C234.353 57.7146 234.619 58.8403 234.786 60.4161C235.053 62.9468 235.041 66.3374 235.026 70.7304C235.022 71.8281 235.018 72.9884 235.018 74.2135C235.018 83.8424 235.037 95.9177 235.056 107.914C235.094 131.636 235.131 155.049 235.018 158.633C234.933 161.369 233.906 164.566 232.05 168.108C230.2 171.639 227.561 175.446 224.336 179.385C217.886 187.262 209.16 195.584 199.918 203.186C190.678 210.785 180.953 217.637 172.525 222.583C168.309 225.057 164.436 227.043 161.121 228.407C157.776 229.784 155.108 230.481 153.265 230.481C137.257 230.481 130.503 221.05 128.622 217.729C128.169 216.929 127.718 216.132 127.269 215.338C113.386 190.797 100.877 168.685 71.0552 140.499Z" fill="white" fill-opacity="0.886473" stroke="#3038E5" stroke-width="2.24483"/>
<mask id="mask2_3219_77012" style="mask-type:luminance" maskUnits="userSpaceOnUse" x="53" y="53" width="184" height="179">
<path d="M71.0552 140.499C68.5601 138.141 65.7499 135.456 63.1724 132.983C66.1456 134.673 69.623 136.449 73.3636 137.969C73.7463 138.125 74.1333 138.284 74.5232 138.444C76.694 139.335 78.9533 140.263 81.0509 140.836C83.4956 141.503 86.0302 141.78 88.1009 140.69C92.2425 138.509 96.7927 133.811 99.8603 125.336C99.8691 125.335 99.8782 125.334 99.8878 125.333C100.223 125.297 100.768 125.321 101.55 125.429C103.096 125.642 105.265 126.137 107.886 126.787C108.957 127.052 110.099 127.342 111.295 127.645C115.904 128.815 121.324 130.191 126.636 131.164C133.285 132.381 139.992 133.015 144.848 131.705C147.306 131.043 149.404 129.852 150.735 127.879C152.07 125.899 152.515 123.308 152.022 120.09C151.188 114.655 151.456 110.778 152.443 108.094C153.41 105.465 155.08 103.932 157.251 103.143C159.48 102.334 162.32 102.282 165.599 102.838C168.866 103.392 172.471 104.532 176.17 106.005C183.568 108.951 191.198 113.17 197.02 116.468C197.605 116.799 198.173 117.122 198.722 117.434C200.883 118.662 202.736 119.716 204.124 120.437C204.982 120.883 205.729 121.238 206.285 121.422C206.532 121.503 206.897 121.606 207.262 121.574C207.459 121.557 207.785 121.489 208.067 121.223C208.377 120.932 208.467 120.565 208.467 120.284V120.196V120.108V120.02V119.933V119.845V119.757V119.669V119.582V119.494V119.407V119.319V119.231V119.144V119.056V118.969V118.881V118.794V118.706V118.619V118.531V118.444V118.357V118.269V118.182V118.095V118.007V117.92V117.833V117.746V117.658V117.571V117.484V117.397V117.31V117.222V117.135V117.048V116.961V116.874V116.787V116.7V116.613V116.526V116.439V116.352V116.265V116.178V116.091V116.005V115.918V115.831V115.744V115.657V115.57V115.484V115.397V114.704V114.012V113.925V113.839V113.752V113.666V113.58V113.493V113.407V113.321V113.234V113.148V113.062V112.976V112.89V112.803V112.717V112.631V112.545V112.459V112.373V112.287V112.201V112.115V112.029V111.943V111.857V111.771V111.685V111.599V111.513V111.427V111.341V111.255V111.169V111.083V110.998V110.912V110.826V110.74V110.655V110.569V110.483V110.398V110.312V110.226V110.141V110.055V109.969V109.884V109.798V109.713V109.627V109.542V109.456V109.371V109.285V109.2V109.115V109.029V108.944V108.858V108.773V108.688V108.602V108.517V108.432V108.347V108.261V108.176V108.091V108.006V107.921V107.835V107.75V107.665V107.58V107.495V107.41V107.325V107.24V107.155V107.07V106.985V106.9V106.815V106.73V106.645V106.56V106.475V106.391V106.306V106.221V106.136V106.051V105.967V105.882V105.797V105.712V105.628V105.543V105.458V105.374V105.289V105.204V105.12V105.035V104.951V104.866V104.782V104.697V104.613V104.528V104.444V104.359V104.275V104.19V104.106V104.022V103.937V103.853V103.769V103.684V103.6V103.516V103.431V103.347V103.263V103.179V103.095V103.01V102.926V102.842V102.758V102.674V102.59V102.506V102.422V102.338V102.254V102.17V102.086V102.002V101.918V101.834V101.75V101.666V101.582V101.498V101.414V101.33V101.247V101.163V101.079V100.995V100.911V100.828V100.744V100.66V100.577V100.493V100.409V100.326V100.242V100.158V100.075V99.9911V99.9075V99.824V99.7404V99.6569V99.5734V99.4899V99.4064V99.323V99.2395V99.1561V99.0727V98.9893V98.9059V98.8226V98.7392V98.6559V98.5726V98.4893V98.406V98.3228V98.2395V98.1563V98.0731V97.9899V97.9067V97.8235V97.7403V97.6572V97.5741V97.491V97.4079V97.3248V97.2418V97.1587V97.0757V96.9927V96.9097V96.8267V96.7437V96.6608V96.5778V96.4949V96.412V96.3291V96.2463V96.1634V96.0806V95.9977V95.9149V95.8321V95.7494V95.6666V95.5838V95.5011V95.4184V95.3357V95.253V95.1703V95.0877V95.005V94.9224V94.8398V94.7572V94.6746V94.5921V94.5095V94.427V94.3445V94.262V94.1795V94.097V94.0145V93.9321V93.8497V93.7673V93.6849V93.6025V93.5201V93.4378V93.3554V93.2731V93.1908V93.1085V93.0262V92.944V92.8617V92.7795V92.6973V92.6151V92.5329V92.4507V92.3685V92.2864V92.2043V92.1222V92.0401V91.958V91.8759V91.7938V91.7118V91.6298V91.5478V91.4658V91.3838V91.3018V91.2199V91.1379V91.056V90.9741V90.8922V90.8103V90.7285V90.6466V90.5648V90.483V90.4012V90.3194V90.2376V90.1558V90.0741V89.9924V89.9106V89.8289V89.7473V89.6656V89.5839V89.5023V89.4206V89.339V89.2574V89.1758V89.0943V89.0127V88.9311V88.8496V88.7681V88.6866V88.6051V88.5236V88.4422V88.3607V88.2793V88.1979V88.1165V88.0351V87.9537V87.8723V87.791V87.7097V87.6283V87.547V87.4657V87.3845V87.3032V87.222V87.1407V87.0595V86.9783V86.8971V86.8159V86.7348V86.6536V86.5725V86.4913V86.4102V86.3291V86.248V86.167V86.0859V86.0049V85.9239V85.8428V85.7618V85.6809V85.5999V85.5189V85.438V85.357V85.2761V85.1952V85.1143V85.0335V84.9526V84.8717V84.7909V84.7101V84.6293V84.5485V84.4677V84.3869V84.3062V84.2254V84.1447V84.064V83.9833V83.9026V83.8219V83.7413V83.6606V83.58V83.4994V83.4187V83.3382V83.2576V83.177V83.0964V83.0159V82.9354V82.8549V82.7744V82.6939V82.6134V82.5329V82.4525V82.372V82.2916V82.2112V82.1308V82.0504V81.9701V81.8897V81.8094V81.729V81.6487V81.5684V81.4881V81.4078V81.3276V81.2473V81.1671V81.0868V81.0066V80.9264V80.8462V80.7661V80.6859V80.6057V80.5256V80.4455V80.3654V80.2853V80.2052V80.1251V77.5694C208.467 60.6488 223.242 52.4044 232.617 55.6274C233.18 55.8207 233.617 56.2046 233.975 56.9389C234.353 57.7146 234.619 58.8403 234.786 60.4161C235.053 62.9468 235.041 66.3374 235.026 70.7304C235.022 71.8281 235.018 72.9884 235.018 74.2135C235.018 83.8424 235.037 95.9177 235.056 107.914C235.094 131.636 235.131 155.049 235.018 158.633C234.933 161.369 233.906 164.566 232.05 168.108C230.2 171.639 227.561 175.446 224.336 179.385C217.886 187.262 209.16 195.584 199.918 203.186C190.678 210.785 180.953 217.637 172.525 222.583C168.309 225.057 164.436 227.043 161.121 228.407C157.776 229.784 155.108 230.481 153.265 230.481C137.257 230.481 130.503 221.05 128.622 217.729C128.169 216.929 127.718 216.132 127.269 215.338C113.386 190.797 100.877 168.685 71.0552 140.499Z" fill="white" stroke="white" stroke-width="2.24483"/>
</mask>
<g mask="url(#mask2_3219_77012)">
<path opacity="0.183105" fill-rule="evenodd" clip-rule="evenodd" d="M88.9551 167.85H184.136V178.625L88.9551 184.565V167.85Z" fill="#3038E5"/>
<path opacity="0.183105" fill-rule="evenodd" clip-rule="evenodd" d="M82.6679 -22.5112H88.9534V176.83L78.1406 176.208L82.6679 -22.5112Z" fill="#3038E5"/>
</g>
<path d="M69.9231 101.112C64.7885 98.0457 62.2051 94.1247 60.8962 90.95C63.0944 93.0704 66.6184 95.5448 72.264 97.9551C73.7022 98.569 75.2188 99.3418 76.7905 100.158C76.9946 100.264 77.1997 100.371 77.4056 100.478C78.7719 101.189 80.1729 101.918 81.551 102.563C84.6579 104.017 87.9624 105.205 90.8363 104.631C98.754 103.051 102.591 96.2121 105.786 88.7147C105.978 88.2652 106.147 87.9413 106.287 87.7149C106.429 88.0466 106.576 88.5155 106.715 89.1269C107.355 91.9243 107.665 96.8356 107.571 101.986C107.477 107.131 106.981 112.357 106.074 115.781C105.849 116.631 105.605 117.343 105.349 117.903C105.087 118.475 104.841 118.82 104.646 119.002C104.554 119.087 104.492 119.118 104.463 119.129C104.441 119.138 104.428 119.138 104.41 119.136C104.361 119.13 104.146 119.076 103.769 118.685C96.1499 110.809 87.6568 106.229 80.8267 103.795C80.6127 103.719 80.3518 103.622 80.0524 103.511C78.6356 102.984 76.3575 102.137 74.1138 101.653C73.2009 101.456 72.2538 101.378 71.4954 101.316C71.419 101.31 71.3446 101.304 71.2723 101.298C70.8596 101.263 70.5286 101.232 70.2653 101.189C70.0474 101.153 69.9511 101.12 69.9261 101.112C69.9178 101.109 69.9174 101.109 69.9231 101.112Z" fill="#D9DAFA" stroke="#3038E5" stroke-width="2.24483"/>
<mask id="mask3_3219_77012" style="mask-type:luminance" maskUnits="userSpaceOnUse" x="58" y="85" width="51" height="36">
<path d="M69.9231 101.112C64.7885 98.0457 62.2051 94.1247 60.8962 90.95C63.0944 93.0704 66.6184 95.5448 72.264 97.9551C73.7022 98.569 75.2188 99.3418 76.7905 100.158C76.9946 100.264 77.1997 100.371 77.4056 100.478C78.7719 101.189 80.1729 101.918 81.551 102.563C84.6579 104.017 87.9624 105.205 90.8363 104.631C98.754 103.051 102.591 96.2121 105.786 88.7147C105.978 88.2652 106.147 87.9413 106.287 87.7149C106.429 88.0466 106.576 88.5155 106.715 89.1269C107.355 91.9243 107.665 96.8356 107.571 101.986C107.477 107.131 106.981 112.357 106.074 115.781C105.849 116.631 105.605 117.343 105.349 117.903C105.087 118.475 104.841 118.82 104.646 119.002C104.554 119.087 104.492 119.118 104.463 119.129C104.441 119.138 104.428 119.138 104.41 119.136C104.361 119.13 104.146 119.076 103.769 118.685C96.1499 110.809 87.6568 106.229 80.8267 103.795C80.6127 103.719 80.3518 103.622 80.0524 103.511C78.6356 102.984 76.3575 102.137 74.1138 101.653C73.2009 101.456 72.2538 101.378 71.4954 101.316C71.419 101.31 71.3446 101.304 71.2723 101.298C70.8596 101.263 70.5286 101.232 70.2653 101.189C70.0474 101.153 69.9511 101.12 69.9261 101.112C69.9178 101.109 69.9174 101.109 69.9231 101.112Z" fill="white" stroke="white" stroke-width="2.24483"/>
</mask>
<g mask="url(#mask3_3219_77012)">
<rect opacity="0.183105" x="82.6699" y="-22.5117" width="6.28553" height="199.341" fill="#3038E5"/>
</g>
<rect x="88.9551" y="-71" width="123.915" height="242.442" rx="12.8404" fill="white" stroke="#3038E5" stroke-width="2.24483"/>
<mask id="mask4_3219_77012" style="mask-type:luminance" maskUnits="userSpaceOnUse" x="87" y="-73" width="127" height="246">
<rect x="88.9551" y="-71" width="123.915" height="242.442" rx="12.8404" fill="white" stroke="white" stroke-width="2.24483"/>
</mask>
<g mask="url(#mask4_3219_77012)">
<rect x="108.711" y="9.81396" width="82.6098" height="59.2635" rx="5.38759" fill="#FCFCFF" stroke="#3038E5" stroke-width="2.24483"/>
<rect x="108.711" y="78.9551" width="82.6098" height="26.04" rx="5.38759" fill="white" stroke="#3038E5" stroke-width="2.24483"/>
<rect opacity="0.451125" x="111.404" y="98.436" width="77.2222" height="4.48966" rx="2.24483" fill="#D9DAFA"/>
<path d="M139.828 95.2468C141.403 95.2468 142.525 94.3598 142.525 93.0564C142.525 92.106 141.855 91.6625 140.878 91.2914C140.009 90.9475 139.819 90.857 139.819 90.6036C139.819 90.3501 140.081 90.151 140.507 90.151C141.149 90.151 141.701 90.4316 142.181 90.8479L143.267 89.6351C142.661 89.0558 141.783 88.6938 140.67 88.6938C139.122 88.6938 137.981 89.5898 137.981 90.8479C137.981 91.7802 138.624 92.2147 139.629 92.5948C140.516 92.9388 140.688 93.0655 140.688 93.3099C140.688 93.5995 140.389 93.7805 139.973 93.7805C139.276 93.7805 138.633 93.4909 138.018 92.9207L136.886 94.0882C137.565 94.8214 138.588 95.2468 139.828 95.2468ZM142.82 95.1382H147.942L148.341 93.6447H144.956L145.227 92.6401H148.25L148.621 91.2552H145.598L145.861 90.2958H149.192L149.599 88.8024H144.521L142.82 95.1382ZM148.874 95.1382H150.621L151.599 91.4906L153.309 95.1382H154.848L156.55 88.8024H154.803L153.852 92.3233L152.214 88.8024H150.576L148.874 95.1382ZM155.945 95.1382H158.498C159.964 95.1382 161.059 94.7309 161.82 93.9706C162.498 93.2917 162.861 92.4228 162.861 91.4725C162.861 90.7031 162.643 90.0876 162.173 89.617C161.693 89.1373 160.924 88.8024 159.693 88.8024H157.647L155.945 95.1382ZM158.127 93.5814L158.996 90.3592H159.503C160.118 90.3592 160.507 90.504 160.743 90.7484C160.942 90.9475 161.059 91.2281 161.059 91.6173C161.059 92.1151 160.851 92.6039 160.516 92.9388C160.1 93.3551 159.439 93.5814 158.706 93.5814H158.127Z" fill="#3038E5"/>
<rect x="122.18" y="29.5688" width="55.6718" height="6.28553" rx="3.14276" fill="#D9DAFA"/>
<rect x="133.852" y="42.1392" width="32.3256" height="6.28553" rx="3.14276" fill="#D9DAFA"/>
<path opacity="0.183105" fill-rule="evenodd" clip-rule="evenodd" d="M169.177 174.852C162.394 130.641 199.21 121.228 201.058 117.429C206.804 105.613 201.058 91.1655 201.058 77.5689C201.058 59.9848 216.494 51.0582 226.696 54.5654C230.271 55.7944 229.854 62.073 229.854 74.213C229.854 102.854 230.024 153.249 229.854 158.668C229.109 182.446 166.118 224.42 149.565 224.42C133.012 224.42 127.755 219.45 123.559 216.329" fill="#3038E5"/>
</g>
<path fill-rule="evenodd" clip-rule="evenodd" d="M175.463 174.852C168.681 130.641 207.018 123.597 207.344 120.283C208.839 105.1 210.341 92.0298 207.344 77.5689C204.009 61.4727 222.78 51.0581 232.982 54.5654C236.557 55.7944 236.14 62.0729 236.14 74.213C236.14 102.854 236.31 153.249 236.14 158.668C235.395 182.446 172.405 224.42 155.852 224.42" fill="white"/>
<path d="M175.463 174.852C168.681 130.641 207.018 123.597 207.344 120.283C208.839 105.1 210.341 92.0298 207.344 77.5689C204.009 61.4727 222.78 51.0581 232.982 54.5654C236.557 55.7944 236.14 62.0729 236.14 74.213C236.14 102.854 236.31 153.249 236.14 158.668C235.395 182.446 172.405 224.42 155.852 224.42" stroke="#3038E5" stroke-width="2.24483"/>
<path fill-rule="evenodd" clip-rule="evenodd" d="M61.3167 53.765C58.6919 49.3189 59.338 42.2107 63.3699 36.6679C67.4019 31.1251 72.8111 29.7292 76.7218 29.7292C80.6325 29.7292 91.2615 32.8937 95.9215 40.1256C100.582 47.3576 91.9445 62.4573 82.3467 63.4402C72.7488 64.4231 63.9415 58.2111 61.3167 53.765Z" fill="white" stroke="#3038E5" stroke-width="2.24483"/>
<path fill-rule="evenodd" clip-rule="evenodd" d="M60.0825 90.277C57.4578 85.8309 58.6826 77.7684 62.7145 72.2255C66.7465 66.6827 72.1558 65.2868 76.0664 65.2868C79.9771 65.2868 98.6351 71.8375 103.295 79.0694C107.955 86.3013 99.4754 103.134 89.8775 104.117C85.3692 104.578 79.8779 101.311 74.2262 98.5515C67.8459 95.4367 61.4744 92.6346 60.0825 90.277Z" fill="white" stroke="#3038E5" stroke-width="2.24483"/>
<path fill-rule="evenodd" clip-rule="evenodd" d="M55.1333 127.211C52.5085 122.765 53.7333 114.702 57.7653 109.16C61.7973 103.617 67.2065 102.221 71.1172 102.221C75.0279 102.221 93.6859 108.772 98.3459 116.004C103.006 123.235 94.5261 140.068 84.9283 141.051C80.42 141.513 74.9287 138.245 69.277 135.486C62.8967 132.371 56.5252 129.569 55.1333 127.211Z" fill="white" stroke="#3038E5" stroke-width="2.24483"/>
<path opacity="0.183105" fill-rule="evenodd" clip-rule="evenodd" d="M267.452 189.199L254.309 196.5L252.813 210.727L240.094 204.397L142.968 258.351C142.968 258.351 171.392 322.962 239.407 371.546C307.422 420.13 356.875 411.148 356.875 411.148L404.535 223.291C404.535 223.291 364.165 248.919 330.206 240.474C296.247 232.028 267.452 189.199 267.452 189.199Z" fill="#3038E5"/>
<path d="M234.903 162.125C225.095 166.707 203.491 177.361 184.783 190.486C166.158 203.553 149.458 219.733 142.074 227.22C140.091 229.231 139.862 232.362 141.5 234.706L144.102 238.429L244.769 167.804L242.206 164.136C240.552 161.77 237.49 160.917 234.903 162.125Z" fill="white" stroke="#3038E5" stroke-width="2.24483"/>
<path d="M240.917 166.928C231.811 171.881 212.606 182.768 192.44 196.915C171.827 211.377 152.768 227.451 144.202 234.876C141.904 236.867 141.51 240.261 143.266 242.774L154.933 259.468L260.289 185.553L248.567 168.779C246.831 166.295 243.555 165.494 240.917 166.928Z" fill="white" stroke="#3038E5" stroke-width="2.24483"/>
<path d="M393.558 188.008C392.486 188.786 391.045 189.803 389.285 190.98C385.201 193.709 379.393 197.296 372.49 200.733C358.722 207.588 340.441 213.922 322.776 211.45C307.791 209.353 293.18 200.908 281.386 191.979C269.572 183.034 260.471 173.515 256.498 169.123C255.617 168.149 254.158 167.98 253.105 168.718L245.027 174.386C244.368 174.848 243.976 175.602 243.976 176.407L243.976 187.509C243.976 188.937 242.531 189.926 241.196 189.38C238.796 188.4 233.524 186.238 231.559 185.378C229.487 184.472 224.422 184.275 217.242 189.301C215.704 190.377 213.968 191.583 212.003 192.948C209.011 195.025 205.489 197.471 201.335 200.385C173.863 219.659 148.977 240.367 141.555 246.639C140.654 247.4 140.455 248.637 141.061 249.608C148.453 261.458 183.132 313.081 246.884 349.207C283.099 369.728 313.18 376.457 334.169 378.071C344.666 378.877 352.895 378.405 358.487 377.735C361.283 377.4 363.419 377.015 364.85 376.717C365.459 376.589 365.941 376.478 366.29 376.392L393.558 188.008Z" fill="white" stroke="#3038E5" stroke-width="2.24483"/>
<path fill-rule="evenodd" clip-rule="evenodd" d="M235.322 96.0156C235.322 96.0156 232.592 95.1177 229.91 95.1177C227.229 95.1177 224.547 96.0156 224.547 96.0156V97.8115C224.547 97.8115 227.216 96.9135 229.918 96.9135C232.62 96.9135 235.322 97.8115 235.322 97.8115V96.0156Z" fill="#3038E5"/>
<path fill-rule="evenodd" clip-rule="evenodd" d="M231.736 99.247C231.736 99.247 230.164 98.9819 228.59 98.9819C227.016 98.9819 225.444 99.607 225.444 99.607V101.403C225.444 101.403 227.021 100.778 228.59 100.778C230.159 100.778 231.736 101.043 231.736 101.043V99.247Z" fill="#3038E5"/>
</g>
</g>
<defs>
<clipPath id="clip0_3219_77012">
<rect width="393" height="327" fill="white" transform="translate(0.5)"/>
</clipPath>
<clipPath id="clip1_3219_77012">
<rect width="300.287" height="469" fill="white" transform="translate(46.8555 -71)"/>
</clipPath>
</defs>
</svg>
