<svg width="212" height="214" viewBox="0 0 212 214" fill="none" xmlns="http://www.w3.org/2000/svg">
<g filter="url(#filter0_i_3219_76887)">
<path fill-rule="evenodd" clip-rule="evenodd" d="M33.6527 97.0816L156.943 64.046C165.566 61.7356 174.432 66.8358 176.771 75.4508L198.825 156.714C201.174 165.368 196.046 174.284 187.384 176.605L72.2865 207.445C63.6626 209.756 54.7949 204.654 52.4583 196.037L23.9492 90.9023" fill="#3038E5"/>
</g>
<path d="M33.6527 97.0816L156.943 64.046C165.566 61.7356 174.432 66.8358 176.771 75.4508L198.825 156.714C201.174 165.368 196.046 174.284 187.384 176.605L72.2865 207.445C63.6626 209.756 54.7949 204.654 52.4583 196.037L23.9492 90.9023" stroke="white" stroke-width="2"/>
<path fill-rule="evenodd" clip-rule="evenodd" d="M23.7645 90.22C22.4513 85.3191 25.3597 80.2816 30.2605 78.9685L128.607 52.6166C137.249 50.3009 146.132 55.4296 148.448 64.0717L149.01 66.1714L35.016 96.7161C30.1151 98.0293 25.0776 95.1209 23.7645 90.22Z" fill="#232AB2" stroke="white" stroke-width="2"/>
<path fill-rule="evenodd" clip-rule="evenodd" d="M123.801 144.967C122.226 146.243 120.771 147.316 118.905 148.158L119.278 155.404L112.611 157.19L112.281 150.103L102.687 152.674L100.827 123.618L110.584 121.004L110.099 114.642L116.766 112.856L117.259 119.899C118.114 119.84 119.013 119.941 119.749 120.086C121.956 120.519 123.804 121.561 125.412 123.01C127.02 124.458 128.02 126.24 128.661 128.631C129.472 131.659 129.428 134.746 128.605 137.529C127.663 140.515 126.061 142.994 123.801 144.967ZM109.426 143.352L105.54 145.759L109.605 144.67L115.134 143.189C116.76 142.753 118.095 141.883 119.183 140.737C120.27 139.592 120.947 138.215 121.375 136.562C121.804 134.91 121.702 133.229 121.232 131.476C120.72 129.563 119.642 128.143 118.162 127.173C116.725 126.362 114.928 126.16 112.977 126.683L108.749 127.816L104.521 128.949L108.603 129.222L109.426 143.352Z" fill="white"/>
<g filter="url(#filter1_i_3219_76887)">
<rect x="155.391" y="109.09" width="38.8675" height="31.094" rx="10.8" transform="rotate(-15 155.391 109.09)" fill="#3038E5"/>
</g>
<rect x="155.391" y="109.09" width="38.8675" height="31.094" rx="10.8" transform="rotate(-15 155.391 109.09)" stroke="white" stroke-width="2"/>
<circle cx="172.337" cy="120.646" r="4.59343" transform="rotate(-15 172.337 120.646)" fill="#2128B2" stroke="white" stroke-width="2"/>
<g filter="url(#filter2_i_3219_76887)">
<rect x="0.0429688" y="175.702" width="65.0005" height="29.0524" rx="6.46652" transform="rotate(-15 0.0429688 175.702)" fill="#3038E5"/>
</g>
<rect x="0.0429688" y="175.702" width="65.0005" height="29.0524" rx="6.46652" transform="rotate(-15 0.0429688 175.702)" stroke="white" stroke-width="2"/>
<rect opacity="0.515206" x="30.4961" y="184.407" width="22.7708" height="3.14081" rx="1.5704" transform="rotate(-15 30.4961 184.407)" fill="#D9DAFA"/>
<path opacity="0.515206" fill-rule="evenodd" clip-rule="evenodd" d="M29.1877 179.521C28.9632 178.684 29.4604 177.822 30.2981 177.598L56.8438 170.485C57.6815 170.261 58.5426 170.758 58.7671 171.596C58.9916 172.433 58.4944 173.294 57.6567 173.519L31.111 180.632C30.2733 180.856 29.4122 180.359 29.1877 179.521Z" fill="#D9DAFA"/>
<circle cx="17.9047" cy="185.188" r="8.83351" transform="rotate(-15 17.9047 185.188)" fill="#878BF0" stroke="#2128B2" stroke-width="1.08"/>
<path fill-rule="evenodd" clip-rule="evenodd" d="M25.1944 190.004C23.7152 188.559 21.2718 188.041 18.9119 188.674C16.5519 189.306 14.6946 190.976 14.1363 192.967C14.1363 192.967 16.8044 194.082 19.8998 193.392C22.9952 192.702 25.1944 190.004 25.1944 190.004Z" fill="white"/>
<path fill-rule="evenodd" clip-rule="evenodd" d="M21.2622 188.185C19.6017 188.13 17.9907 188.415 16.4571 189.336C16.4991 189.295 16.9217 190.378 19.0986 189.793C21.2754 189.208 21.2273 188.141 21.2622 188.185Z" fill="#E0E1FB" style="mix-blend-mode:multiply"/>
<path d="M25.2978 190.388C23.7196 188.573 21.2132 187.821 18.8533 188.453C16.4933 189.085 14.699 190.99 14.2397 193.351" stroke="#2128B2" stroke-width="1.08"/>
<g filter="url(#filter3_i_3219_76887)">
<circle cx="17.3116" cy="183.928" r="3.49807" transform="rotate(-15 17.3116 183.928)" fill="white"/>
</g>
<circle cx="17.3116" cy="183.928" r="3.49807" transform="rotate(-15 17.3116 183.928)" stroke="#2128B2" stroke-width="1.08"/>
<g filter="url(#filter4_i_3219_76887)">
<rect x="97.2734" y="16.8232" width="65.0005" height="23.1509" rx="6.46652" transform="rotate(-15 97.2734 16.8232)" fill="#3038E5"/>
</g>
<rect x="97.2734" y="16.8232" width="65.0005" height="23.1509" rx="6.46652" transform="rotate(-15 97.2734 16.8232)" stroke="white" stroke-width="2"/>
<circle opacity="0.515206" cx="112.193" cy="24.8098" r="2.67125" transform="rotate(-15 112.193 24.8098)" fill="#D9DAFA"/>
<circle opacity="0.515206" cx="122.514" cy="22.0436" r="2.67125" transform="rotate(-15 122.514 22.0436)" fill="#D9DAFA"/>
<circle opacity="0.515206" cx="132.834" cy="19.278" r="2.67125" transform="rotate(-15 132.834 19.278)" fill="#D9DAFA"/>
<circle opacity="0.515206" cx="143.158" cy="16.5124" r="2.67125" transform="rotate(-15 143.158 16.5124)" fill="#D9DAFA"/>
<circle opacity="0.515206" cx="153.479" cy="13.7473" r="2.67125" transform="rotate(-15 153.479 13.7473)" fill="#D9DAFA"/>
<circle cx="47.8872" cy="47.1201" r="7.85201" stroke="white" stroke-width="2"/>
<circle cx="166.454" cy="204.161" r="7.85201" stroke="white" stroke-width="2"/>
<defs>
<filter id="filter0_i_3219_76887" x="22.9844" y="62.4897" width="177.41" height="146.512" filterUnits="userSpaceOnUse" color-interpolation-filters="sRGB">
<feFlood flood-opacity="0" result="BackgroundImageFix"/>
<feBlend mode="normal" in="SourceGraphic" in2="BackgroundImageFix" result="shape"/>
<feColorMatrix in="SourceAlpha" type="matrix" values="0 0 0 0 0 0 0 0 0 0 0 0 0 0 0 0 0 0 127 0" result="hardAlpha"/>
<feOffset dx="8" dy="-8"/>
<feComposite in2="hardAlpha" operator="arithmetic" k2="-1" k3="1"/>
<feColorMatrix type="matrix" values="0 0 0 0 0.130238 0 0 0 0 0.155301 0 0 0 0 0.697294 0 0 0 1 0"/>
<feBlend mode="normal" in2="shape" result="effect1_innerShadow_3219_76887"/>
</filter>
<filter id="filter1_i_3219_76887" x="156.816" y="99.4546" width="43.7422" height="38.2456" filterUnits="userSpaceOnUse" color-interpolation-filters="sRGB">
<feFlood flood-opacity="0" result="BackgroundImageFix"/>
<feBlend mode="normal" in="SourceGraphic" in2="BackgroundImageFix" result="shape"/>
<feColorMatrix in="SourceAlpha" type="matrix" values="0 0 0 0 0 0 0 0 0 0 0 0 0 0 0 0 0 0 127 0" result="hardAlpha"/>
<feMorphology radius="1" operator="erode" in="SourceAlpha" result="effect1_innerShadow_3219_76887"/>
<feOffset dx="6" dy="-6"/>
<feComposite in2="hardAlpha" operator="arithmetic" k2="-1" k3="1"/>
<feColorMatrix type="matrix" values="0 0 0 0 0.130238 0 0 0 0 0.155301 0 0 0 0 0.697294 0 0 0 1 0"/>
<feBlend mode="normal" in2="shape" result="effect1_innerShadow_3219_76887"/>
</filter>
<filter id="filter2_i_3219_76887" x="0.535156" y="158.372" width="70.3203" height="44.8999" filterUnits="userSpaceOnUse" color-interpolation-filters="sRGB">
<feFlood flood-opacity="0" result="BackgroundImageFix"/>
<feBlend mode="normal" in="SourceGraphic" in2="BackgroundImageFix" result="shape"/>
<feColorMatrix in="SourceAlpha" type="matrix" values="0 0 0 0 0 0 0 0 0 0 0 0 0 0 0 0 0 0 127 0" result="hardAlpha"/>
<feMorphology radius="1" operator="erode" in="SourceAlpha" result="effect1_innerShadow_3219_76887"/>
<feOffset dx="4" dy="-4"/>
<feComposite in2="hardAlpha" operator="arithmetic" k2="-1" k3="1"/>
<feColorMatrix type="matrix" values="0 0 0 0 0.130238 0 0 0 0 0.155301 0 0 0 0 0.697294 0 0 0 1 0"/>
<feBlend mode="normal" in2="shape" result="effect1_innerShadow_3219_76887"/>
</filter>
<filter id="filter3_i_3219_76887" x="12.7334" y="179.349" width="8.61813" height="8.61813" filterUnits="userSpaceOnUse" color-interpolation-filters="sRGB">
<feFlood flood-opacity="0" result="BackgroundImageFix"/>
<feBlend mode="normal" in="SourceGraphic" in2="BackgroundImageFix" result="shape"/>
<feColorMatrix in="SourceAlpha" type="matrix" values="0 0 0 0 0 0 0 0 0 0 0 0 0 0 0 0 0 0 127 0" result="hardAlpha"/>
<feMorphology radius="0.54" operator="erode" in="SourceAlpha" result="effect1_innerShadow_3219_76887"/>
<feOffset dx="-1" dy="-1"/>
<feComposite in2="hardAlpha" operator="arithmetic" k2="-1" k3="1"/>
<feColorMatrix type="matrix" values="0 0 0 0 0.878431 0 0 0 0 0.882353 0 0 0 0 0.984314 0 0 0 1 0"/>
<feBlend mode="normal" in2="shape" result="effect1_innerShadow_3219_76887"/>
</filter>
<filter id="filter4_i_3219_76887" x="97.7656" y="-0.507324" width="68.793" height="39.1997" filterUnits="userSpaceOnUse" color-interpolation-filters="sRGB">
<feFlood flood-opacity="0" result="BackgroundImageFix"/>
<feBlend mode="normal" in="SourceGraphic" in2="BackgroundImageFix" result="shape"/>
<feColorMatrix in="SourceAlpha" type="matrix" values="0 0 0 0 0 0 0 0 0 0 0 0 0 0 0 0 0 0 127 0" result="hardAlpha"/>
<feMorphology radius="1" operator="erode" in="SourceAlpha" result="effect1_innerShadow_3219_76887"/>
<feOffset dx="4" dy="-4"/>
<feComposite in2="hardAlpha" operator="arithmetic" k2="-1" k3="1"/>
<feColorMatrix type="matrix" values="0 0 0 0 0.130238 0 0 0 0 0.155301 0 0 0 0 0.697294 0 0 0 1 0"/>
<feBlend mode="normal" in2="shape" result="effect1_innerShadow_3219_76887"/>
</filter>
</defs>
</svg>
