<svg width="26" height="26" viewBox="0 0 26 26" fill="none" xmlns="http://www.w3.org/2000/svg">
<g clip-path="url(#clip0_203_7910)">
<path d="M9.75033 5.4165H7.58366C7.00902 5.4165 6.45792 5.64478 6.05159 6.05111C5.64527 6.45743 5.41699 7.00854 5.41699 7.58317V20.5832C5.41699 21.1578 5.64527 21.7089 6.05159 22.1152C6.45792 22.5216 7.00902 22.7498 7.58366 22.7498H18.417C18.9916 22.7498 19.5427 22.5216 19.9491 22.1152C20.3554 21.7089 20.5837 21.1578 20.5837 20.5832V7.58317C20.5837 7.00854 20.3554 6.45743 19.9491 6.05111C19.5427 5.64478 18.9916 5.4165 18.417 5.4165H16.2503" stroke="#648CFF" stroke-width="2" stroke-linecap="round" stroke-linejoin="round"/>
<path d="M14.0833 3.25H11.9167C10.72 3.25 9.75 4.22005 9.75 5.41667C9.75 6.61328 10.72 7.58333 11.9167 7.58333H14.0833C15.28 7.58333 16.25 6.61328 16.25 5.41667C16.25 4.22005 15.28 3.25 14.0833 3.25Z" stroke="#648CFF" stroke-width="2" stroke-linecap="round" stroke-linejoin="round"/>
<path d="M15.1663 11.9165H12.458C12.027 11.9165 11.6137 12.0877 11.309 12.3925C11.0042 12.6972 10.833 13.1105 10.833 13.5415C10.833 13.9725 11.0042 14.3858 11.309 14.6906C11.6137 14.9953 12.027 15.1665 12.458 15.1665H13.5413C13.9723 15.1665 14.3856 15.3377 14.6904 15.6425C14.9951 15.9472 15.1663 16.3605 15.1663 16.7915C15.1663 17.2225 14.9951 17.6358 14.6904 17.9406C14.3856 18.2453 13.9723 18.4165 13.5413 18.4165H10.833" stroke="#648CFF" stroke-width="2" stroke-linecap="round" stroke-linejoin="round"/>
<path d="M13 10.8335V11.9168M13 18.4168V19.5002V18.4168Z" stroke="#648CFF" stroke-width="2" stroke-linecap="round" stroke-linejoin="round"/>
</g>
<defs>
<clipPath id="clip0_203_7910">
<rect width="26" height="26" fill="white"/>
</clipPath>
</defs>
</svg>
