<svg width="28" height="32" viewBox="0 0 28 32" fill="none" xmlns="http://www.w3.org/2000/svg">
<path fill-rule="evenodd" clip-rule="evenodd" d="M19.6452 25.0267C18.0927 25.6492 16.6815 26.1472 14.9879 26.3962L13.7177 31.75H7.93145L9.20161 26.5208H0.875L5.67339 4.98123H14.1411L15.129 0.25H20.9153L19.7863 5.47925C20.4919 5.60376 21.1976 5.85277 21.7621 6.10178C23.4556 6.84882 24.7258 7.96937 25.7137 9.33893C26.7016 10.7085 27.125 12.2026 27.125 14.0702C27.125 16.4358 26.4194 18.6769 25.1492 20.5445C23.7379 22.5366 21.9032 24.0306 19.6452 25.0267ZM8.35505 21.0427L4.68569 22.0387H8.21392H13.0123C14.4236 22.0387 15.6938 21.6652 16.8228 21.0427C17.9518 20.4202 18.7986 19.5486 19.5042 18.4281C20.2099 17.3075 20.4921 16.0625 20.4921 14.6929C20.4921 13.1988 19.9276 11.9538 18.9397 10.9577C17.9518 10.0862 16.5405 9.58815 14.847 9.58815H11.1776H7.50828L10.7542 10.5842L8.35505 21.0427Z" fill="#648CFF"/>
</svg>
