<svg width="102" height="15" viewBox="0 0 102 15" fill="none" xmlns="http://www.w3.org/2000/svg">
<path fill-rule="evenodd" clip-rule="evenodd" d="M42.391 7.30326H45.707L44.6017 13.0274C43.6973 13.6196 42.793 14.0144 41.6876 14.4091C40.5823 14.7052 39.5775 14.9026 38.5727 14.9026C37.1659 14.9026 35.9601 14.6065 34.8548 14.0144C33.7495 13.4222 32.9456 12.6327 32.3427 11.547C31.7398 10.5601 31.4384 9.37581 31.4384 8.0928C31.4384 6.61241 31.8403 5.23071 32.6442 4.0464C33.448 2.86209 34.5533 1.87516 35.8596 1.08562C37.1659 0.394771 38.6731 0 40.3814 0C41.4867 0 42.4915 0.197385 43.5968 0.592156C44.6017 0.986927 45.506 1.48039 46.2094 2.17124L43.7978 4.83594C43.2954 4.34248 42.793 3.94771 42.0896 3.65163C41.3862 3.35555 40.7833 3.25686 40.0799 3.25686C39.276 3.25686 38.4722 3.45424 37.7688 3.84902C37.0654 4.24379 36.4625 4.83594 36.0606 5.52679C35.6586 6.21764 35.4577 7.00718 35.4577 7.89542C35.4577 8.58626 35.6586 9.27711 35.9601 9.86927C36.2616 10.4614 36.764 10.9549 37.2664 11.251C37.8693 11.547 38.4722 11.7444 39.1756 11.7444C39.8789 11.7444 40.7833 11.547 41.6876 11.0536L42.391 7.30326ZM12.4551 1.07673C13.56 1.56705 14.3635 2.35158 14.8657 3.23416C15.3679 4.21481 15.6693 5.19547 15.6693 6.37225C15.6693 8.03936 15.2675 9.41227 14.4639 10.6871C13.6604 11.962 12.5555 12.9426 11.1493 13.6291C9.84352 14.3155 8.23641 14.7078 6.52886 14.7078H0L2.91288 0.292206H8.83908C10.2453 0.292206 11.4506 0.586401 12.4551 1.07673ZM9.5339 11.0969C10.2397 10.6041 10.7439 10.1113 11.1472 9.32282C11.5506 8.63288 11.7522 7.74582 11.6514 6.85876C11.6514 5.87314 11.3489 4.98608 10.7439 4.39471C10.1389 3.70477 9.33223 3.40909 8.3239 3.40909H6.10556L4.39139 11.6883H7.21473C8.12223 11.6883 8.82807 11.4912 9.5339 11.0969ZM26.8247 0.38961H22.9085L14.1722 14.7078H18.0885L19.4943 12.158H25.8205L26.423 14.7078H30.5401L26.8247 0.38961ZM24.0528 4.09091L21.1585 9.35065H25.1507L24.0528 4.09091ZM61.9785 2.46603C61.2749 1.77518 60.4709 1.08433 59.4658 0.689561C58.4607 0.29479 57.4556 0.0974045 56.2496 0.0974045C54.742 0.0974045 53.2343 0.492175 51.9278 1.18302C50.6212 1.87387 49.6161 2.8608 48.812 4.04511C48.1085 5.32812 47.7065 6.70982 47.7065 8.19021C47.7065 9.47321 48.008 10.6575 48.611 11.6445C49.2141 12.7301 50.0181 13.5196 51.1237 14.1118C52.2293 14.7039 53.4354 15 54.742 15C55.8475 15 56.9531 14.8026 58.0587 14.3092C59.1643 13.8157 60.1693 13.1248 61.0739 12.3353L59.0638 9.96667C58.4607 10.4601 57.8577 10.8549 57.1541 11.151C56.4506 11.4471 55.8475 11.6445 55.2445 11.6445C54.6414 11.6445 53.9379 11.4471 53.4354 11.151C52.8323 10.7562 52.4303 10.3614 52.1288 9.76929C51.8272 9.17713 51.6262 8.48628 51.6262 7.79543C51.6262 7.00589 51.8272 6.21635 52.2293 5.5255C52.6313 4.83465 53.1338 4.2425 53.8374 3.84773C54.5409 3.45296 55.2445 3.25557 56.0485 3.25557C56.7521 3.25557 57.3551 3.35426 57.9582 3.74903C58.5612 4.04511 59.0638 4.53858 59.4658 5.13073L61.9785 2.46603ZM77.5221 3.35426C76.9163 2.36734 76.0076 1.4791 74.998 0.985639C73.8874 0.393483 72.6759 0.0974045 71.2624 0.0974045C69.647 0.0974045 68.2335 0.492175 66.82 1.18302C65.5075 1.87387 64.3969 2.8608 63.5892 4.04511C62.7815 5.22942 62.3777 6.61112 62.3777 8.19021C62.3777 9.47321 62.6806 10.6575 63.2863 11.6445C63.8921 12.6314 64.6998 13.5196 65.8104 14.1118C66.921 14.7039 68.1325 15 69.546 15C71.1614 15 72.5749 14.6052 73.9884 13.9144C75.3009 13.2235 76.4115 12.2366 77.2192 10.9536C78.0269 9.6706 78.4307 8.38759 78.4307 6.80851C78.5317 5.5255 78.1278 4.34119 77.5221 3.35426ZM72.3298 11.0971C73.037 10.703 73.5422 10.1117 73.9464 9.422C74.3505 8.73226 74.5526 7.94398 74.6536 7.05716C74.6536 6.36741 74.4515 5.67767 74.1484 5.08646C73.8453 4.49524 73.3401 4.00257 72.835 3.70696C72.2287 3.41136 71.7236 3.21429 71.0163 3.21429C70.208 3.21429 69.5008 3.41136 68.7935 3.8055C68.0863 4.19964 67.48 4.79085 67.0759 5.4806C66.6717 6.26888 66.4697 7.05716 66.4697 7.84544C66.4697 8.53519 66.6717 9.22493 66.9748 9.81614C67.278 10.4074 67.6821 10.9 68.2883 11.1956C68.7935 11.4912 69.3997 11.6883 70.107 11.6883C70.9153 11.6883 71.6225 11.4912 72.3298 11.0971ZM85.7319 0.38961L82.7944 14.7078H78.9452L81.8827 0.38961H85.7319ZM102 0.38961H98.4855L96.6781 9.01975L91.7579 0.38961H88.4443L85.5323 14.7078H89.1471L90.9546 6.17572L95.7744 14.7078H99.088L102 0.38961Z" fill="white"/>
</svg>
