<svg width="173" height="56" viewBox="0 0 173 56" fill="none" xmlns="http://www.w3.org/2000/svg">
<path fill-rule="evenodd" clip-rule="evenodd" d="M113.391 27.3033H116.707L115.602 33.0274C114.697 33.6196 113.793 34.0144 112.688 34.4091C111.582 34.7052 110.577 34.9026 109.573 34.9026C108.166 34.9026 106.96 34.6065 105.855 34.0144C104.749 33.4222 103.946 32.6327 103.343 31.547C102.74 30.5601 102.438 29.3758 102.438 28.0928C102.438 26.6124 102.84 25.2307 103.644 24.0464C104.448 22.8621 105.553 21.8752 106.86 21.0856C108.166 20.3948 109.673 20 111.381 20C112.487 20 113.492 20.1974 114.597 20.5922C115.602 20.9869 116.506 21.4804 117.209 22.1712L114.798 24.8359C114.295 24.3425 113.793 23.9477 113.09 23.6516C112.386 23.3556 111.783 23.2569 111.08 23.2569C110.276 23.2569 109.472 23.4542 108.769 23.849C108.065 24.2438 107.463 24.8359 107.061 25.5268C106.659 26.2176 106.458 27.0072 106.458 27.8954C106.458 28.5863 106.659 29.2771 106.96 29.8693C107.262 30.4614 107.764 30.9549 108.266 31.251C108.869 31.547 109.472 31.7444 110.176 31.7444C110.879 31.7444 111.783 31.547 112.688 31.0536L113.391 27.3033ZM83.4551 21.0767C84.56 21.5671 85.3635 22.3516 85.8657 23.2342C86.3679 24.2148 86.6693 25.1955 86.6693 26.3723C86.6693 28.0394 86.2675 29.4123 85.4639 30.6871C84.6604 31.962 83.5555 32.9426 82.1493 33.6291C80.8435 34.3155 79.2364 34.7078 77.5289 34.7078H71L73.9129 20.2922H79.8391C81.2453 20.2922 82.4506 20.5864 83.4551 21.0767ZM80.5339 31.0969C81.2397 30.6041 81.7439 30.1113 82.1472 29.3228C82.5506 28.6329 82.7522 27.7458 82.6514 26.8588C82.6514 25.8731 82.3489 24.9861 81.7439 24.3947C81.1389 23.7048 80.3322 23.4091 79.3239 23.4091H77.1056L75.3914 31.6883H78.2147C79.1222 31.6883 79.8281 31.4912 80.5339 31.0969ZM97.8247 20.3896H93.9085L85.1722 34.7078H89.0885L90.4943 32.158H96.8205L97.423 34.7078H101.54L97.8247 20.3896ZM95.0528 24.0909L92.1585 29.3506H96.1507L95.0528 24.0909ZM132.978 22.466C132.275 21.7752 131.471 21.0843 130.466 20.6896C129.461 20.2948 128.456 20.0974 127.25 20.0974C125.742 20.0974 124.234 20.4922 122.928 21.183C121.621 21.8739 120.616 22.8608 119.812 24.0451C119.108 25.3281 118.706 26.7098 118.706 28.1902C118.706 29.4732 119.008 30.6575 119.611 31.6444C120.214 32.7301 121.018 33.5196 122.124 34.1118C123.229 34.7039 124.435 35 125.742 35C126.848 35 127.953 34.8026 129.059 34.3092C130.164 33.8157 131.169 33.1248 132.074 32.3353L130.064 29.9667C129.461 30.4601 128.858 30.8549 128.154 31.151C127.451 31.4471 126.848 31.6444 126.244 31.6444C125.641 31.6444 124.938 31.4471 124.435 31.151C123.832 30.7562 123.43 30.3614 123.129 29.7693C122.827 29.1771 122.626 28.4863 122.626 27.7954C122.626 27.0059 122.827 26.2163 123.229 25.5255C123.631 24.8347 124.134 24.2425 124.837 23.8477C125.541 23.453 126.244 23.2556 127.049 23.2556C127.752 23.2556 128.355 23.3543 128.958 23.749C129.561 24.0451 130.064 24.5386 130.466 25.1307L132.978 22.466ZM148.522 23.3543C147.916 22.3673 147.008 21.4791 145.998 20.9856C144.887 20.3935 143.676 20.0974 142.262 20.0974C140.647 20.0974 139.234 20.4922 137.82 21.183C136.508 21.8739 135.397 22.8608 134.589 24.0451C133.782 25.2294 133.378 26.6111 133.378 28.1902C133.378 29.4732 133.681 30.6575 134.286 31.6444C134.892 32.6314 135.7 33.5196 136.81 34.1118C137.921 34.7039 139.133 35 140.546 35C142.161 35 143.575 34.6052 144.988 33.9144C146.301 33.2235 147.411 32.2366 148.219 30.9536C149.027 29.6706 149.431 28.3876 149.431 26.8085C149.532 25.5255 149.128 24.3412 148.522 23.3543ZM143.33 31.0971C144.037 30.703 144.542 30.1117 144.946 29.422C145.351 28.7323 145.553 27.944 145.654 27.0572C145.654 26.3674 145.452 25.6777 145.148 25.0865C144.845 24.4952 144.34 24.0026 143.835 23.707C143.229 23.4114 142.724 23.2143 142.016 23.2143C141.208 23.2143 140.501 23.4114 139.794 23.8055C139.086 24.1996 138.48 24.7908 138.076 25.4806C137.672 26.2689 137.47 27.0572 137.47 27.8454C137.47 28.5352 137.672 29.2249 137.975 29.8161C138.278 30.4074 138.682 30.9 139.288 31.1956C139.794 31.4912 140.4 31.6883 141.107 31.6883C141.915 31.6883 142.623 31.4912 143.33 31.0971ZM156.732 20.3896L153.794 34.7078H149.945L152.883 20.3896H156.732ZM173 20.3896H169.486L167.678 29.0197L162.758 20.3896H159.444L156.532 34.7078H160.147L161.955 26.1757L166.774 34.7078H170.088L173 20.3896Z" fill="#1E2240"/>
<rect width="56" height="56" rx="18" fill="url(#paint0_linear_3219_77018)"/>
<path fill-rule="evenodd" clip-rule="evenodd" d="M31.4409 33.5019C30.4946 33.8813 29.6344 34.1849 28.6022 34.3367L27.828 37.5999H24.3011L25.0753 34.4125H20L22.9247 21.2837H28.086L28.6882 18.3999H32.2151L31.5269 21.5873C31.957 21.6631 32.3871 21.8149 32.7312 21.9667C33.7634 22.422 34.5376 23.105 35.1398 23.9398C35.7419 24.7746 36 25.6853 36 26.8236C36 28.2655 35.5699 29.6315 34.7957 30.7699C33.9355 31.9841 32.8172 32.8948 31.4409 33.5019ZM24.5592 31.0735L22.3227 31.6806H24.4732H27.3979C28.2581 31.6806 29.0323 31.453 29.7205 31.0735C30.4087 30.6941 30.9248 30.1628 31.3549 29.4798C31.785 28.7968 31.9571 28.0379 31.9571 27.2032C31.9571 26.2925 31.613 25.5336 31.0108 24.9265C30.4087 24.3953 29.5485 24.0917 28.5162 24.0917H26.2796H24.0431L26.0216 24.6988L24.5592 31.0735Z" fill="white"/>
<defs>
<linearGradient id="paint0_linear_3219_77018" x1="56" y1="56" x2="56" y2="0" gradientUnits="userSpaceOnUse">
<stop offset="0.00971284" stop-color="#5A61E7"/>
<stop offset="0.992874" stop-color="#3039E5"/>
</linearGradient>
</defs>
</svg>
