<svg width="56" height="56" viewBox="0 0 56 56" fill="none" xmlns="http://www.w3.org/2000/svg">
<rect width="56" height="56" rx="18" fill="white"/>
<path fill-rule="evenodd" clip-rule="evenodd" d="M31.4409 33.5019C30.4946 33.8813 29.6344 34.1849 28.6022 34.3367L27.828 37.5999H24.3011L25.0753 34.4125H20L22.9247 21.2837H28.086L28.6882 18.3999H32.2151L31.5269 21.5873C31.957 21.6631 32.3871 21.8149 32.7312 21.9667C33.7634 22.422 34.5376 23.105 35.1398 23.9398C35.7419 24.7746 36 25.6853 36 26.8236C36 28.2655 35.5699 29.6315 34.7957 30.7699C33.9355 31.9841 32.8172 32.8948 31.4409 33.5019ZM24.5592 31.0734L22.3227 31.6805H24.4732H27.3979C28.2581 31.6805 29.0323 31.4528 29.7205 31.0734C30.4087 30.6939 30.9248 30.1627 31.3549 29.4797C31.785 28.7967 31.9571 28.0378 31.9571 27.203C31.9571 26.2924 31.613 25.5335 31.0108 24.9264C30.4087 24.3951 29.5485 24.0916 28.5162 24.0916H26.2796H24.0431L26.0216 24.6987L24.5592 31.0734Z" fill="#3038E5"/>
</svg>
