<svg width="26" height="22" viewBox="0 0 26 22" fill="none" xmlns="http://www.w3.org/2000/svg">
<path d="M22.7504 11.4592V9.9165C22.7504 7.33064 21.7232 4.85069 19.8947 3.02221C18.0662 1.19373 15.5863 0.166504 13.0004 0.166504C10.4146 0.166504 7.9346 1.19373 6.10612 3.02221C4.27764 4.85069 3.25041 7.33064 3.25041 9.9165V11.4592C2.11417 11.9595 1.18428 12.835 0.616421 13.939C0.0485606 15.043 -0.122803 16.3086 0.131018 17.5239C0.38484 18.7392 1.04844 19.8305 2.01072 20.6149C2.97301 21.3994 4.17557 21.8295 5.41708 21.8332C5.99172 21.8332 6.54282 21.6049 6.94915 21.1986C7.35547 20.7922 7.58375 20.2411 7.58375 19.6665V13.1665C7.58375 12.5919 7.35547 12.0408 6.94915 11.6344C6.54282 11.2281 5.99172 10.9998 5.41708 10.9998V9.9165C5.41708 7.90528 6.21604 5.97643 7.63819 4.55428C9.06034 3.13213 10.9892 2.33317 13.0004 2.33317C15.0116 2.33317 16.9405 3.13213 18.3626 4.55428C19.7848 5.97643 20.5837 7.90528 20.5837 9.9165V10.9998C20.0091 10.9998 19.458 11.2281 19.0517 11.6344C18.6454 12.0408 18.4171 12.5919 18.4171 13.1665V19.6665H15.1671C14.8798 19.6665 14.6042 19.7806 14.401 19.9838C14.1979 20.187 14.0837 20.4625 14.0837 20.7498C14.0837 21.0372 14.1979 21.3127 14.401 21.5159C14.6042 21.719 14.8798 21.8332 15.1671 21.8332H20.5837C21.8253 21.8295 23.0278 21.3994 23.9901 20.6149C24.9524 19.8305 25.616 18.7392 25.8698 17.5239C26.1236 16.3086 25.9523 15.043 25.3844 13.939C24.8165 12.835 23.8867 11.9595 22.7504 11.4592ZM5.41708 19.6665C4.55513 19.6665 3.72848 19.3241 3.11898 18.7146C2.50949 18.1051 2.16708 17.2785 2.16708 16.4165C2.16708 15.5546 2.50949 14.7279 3.11898 14.1184C3.72848 13.5089 4.55513 13.1665 5.41708 13.1665V19.6665ZM20.5837 19.6665V13.1665C21.4457 13.1665 22.2724 13.5089 22.8818 14.1184C23.4913 14.7279 23.8337 15.5546 23.8337 16.4165C23.8337 17.2785 23.4913 18.1051 22.8818 18.7146C22.2724 19.3241 21.4457 19.6665 20.5837 19.6665Z" fill="#648CFF"/>
</svg>
